<svg width="150" height="112" viewBox="0 0 150 112" fill="none" xmlns="http://www.w3.org/2000/svg">
<rect width="150" height="112" fill="#3A63DE"/>
<path fill-rule="evenodd" clip-rule="evenodd" d="M78.8333 33H52V49.4352L73.7239 71.1591H78.8333V71.1589L78.9205 71.1591C89.4578 71.1591 98 62.6169 98 52.0795C98 41.5422 89.4578 33 78.9205 33L78.8333 33.0002V33ZM84.5833 51.9924C84.5833 55.9379 81.3849 59.1363 77.4394 59.1364V59.1364H62.4545V44.8485H77.4165L77.4394 44.8485C81.3849 44.8485 84.5833 48.0469 84.5833 51.9924Z" fill="white"/>
<path fill-rule="evenodd" clip-rule="evenodd" d="M52.1606 33H52V49.4352L81.5648 79H98V78.8394L52.1606 33Z" fill="white"/>
<path fill-rule="evenodd" clip-rule="evenodd" d="M52 61.8135V79.0001H69.1866L52 61.8135Z" fill="#FF9054"/>
</svg>
